<svg preserveAspectRatio="none" overflow="visible" style="display: block;" width="16" height="16" viewBox="0 0 16 16" fill="none" xmlns="http://www.w3.org/2000/svg">
<g id="SVG" clip-path="url(#clip0_0_12)">
<path id="Vector" d="M16 8.04867C16 3.63067 12.418 0.0486667 8 0.0486667C3.582 0.0486667 0 3.63067 0 8.04867C0 12.042 2.92533 15.3513 6.75 15.9513V10.3613H4.71867V8.048H6.75V6.28667C6.75 4.282 7.94467 3.174 9.772 3.174C10.6467 3.174 11.5627 3.33067 11.5627 3.33067V5.29933H10.5533C9.55933 5.29933 9.24933 5.916 9.24933 6.54867V8.04867H11.468L11.1133 10.362H9.24933V15.952C13.0747 15.3513 16 12.0413 16 8.04867V8.04867" fill="#334155"/>
</g>
<defs>
<clipPath id="clip0_0_12">
<rect width="16" height="16" fill="white"/>
</clipPath>
</defs>
</svg>
