<svg preserveAspectRatio="none" overflow="visible" style="display: block;" width="20" height="20" viewBox="0 0 20 20" fill="none" xmlns="http://www.w3.org/2000/svg">
<g id="SVG">
<path id="Vector" d="M15.8333 2.5C16.7538 2.5 17.5 3.24619 17.5 4.16667V15.8333C17.5 16.7538 16.7538 17.5 15.8333 17.5H4.16667C3.24619 17.5 2.5 16.7538 2.5 15.8333V4.16667C2.5 3.24619 3.24619 2.5 4.16667 2.5H15.8333V2.5M15.4167 15.4167V11C15.4167 9.50063 14.1994 8.28333 12.7 8.28333C11.9917 8.28333 11.1667 8.71667 10.8 9.36667V8.44167H8.475V15.4167H10.8V11.3083C10.8 10.6667 11.3167 10.1417 11.9583 10.1417C12.6027 10.1417 13.125 10.664 13.125 11.3083V15.4167H15.4167V15.4167M5.38333 9.08333V16.0583H7.66667V9.08333H5.38333V9.08333M6.525 5.375C5.77072 5.375 5.15833 5.98738 5.15833 6.74167C5.15833 7.49595 5.77072 8.10833 6.525 8.10833C7.27928 8.10833 7.89167 7.49595 7.89167 6.74167C7.89167 5.98738 7.27928 5.375 6.525 5.375V5.375" fill="white"/>
</g>
</svg>
