<svg preserveAspectRatio="none" overflow="visible" style="display: block;" width="88.6655" height="15.4658" viewBox="0 0 88.6655 15.4658" fill="none" xmlns="http://www.w3.org/2000/svg">
<foreignObject x="-12" y="-12" width="112.666" height="39.4658"><div xmlns="http://www.w3.org/1999/xhtml" style="backdrop-filter:blur(6px);clip-path:url(#bgblur_0_155_181_clip_path);height:100%;width:100%"></div></foreignObject><g id="Overlay+OverlayBlur" data-figma-bg-blur-radius="12">
<rect width="88.6655" height="15.4658" rx="6" fill="#213145" fill-opacity="0.8"/>
<g id="Vector">
<path d="M77.7954 11.3583V6.69623C77.7954 6.21283 77.8008 5.85297 77.8116 5.61664L77.8277 5.07953C77.5985 5.81716 77.4284 6.33816 77.3174 6.64252L76.4366 8.99506H75.7007L74.8091 6.64252C74.7447 6.4778 74.5728 5.95681 74.2935 5.07953L74.315 6.69623V11.3583H73.4556V4.11273H74.7286L75.7222 6.7392C75.7974 6.92898 75.9191 7.34255 76.0874 7.97992L76.2271 7.49652L76.4634 6.74457L77.4571 4.11273H78.6656V11.3583H77.7954Z" fill="#EAF1FF"/>
<path d="M67.4082 7.70062C67.4082 8.67816 67.5613 9.41132 67.8674 9.90009C68.1736 10.3889 68.6417 10.6332 69.272 10.6332C69.6336 10.6332 69.9612 10.5106 70.2549 10.2653C70.5485 10.02 70.7973 9.6378 71.0014 9.11859L71.8555 9.46771C71.3219 10.7997 70.4572 11.4658 69.2612 11.4658C68.3195 11.4658 67.5953 11.1417 67.0886 10.4936C66.5819 9.84548 66.3286 8.91449 66.3286 7.70062C66.3286 5.2335 67.2882 3.99994 69.2075 3.99994C70.4214 3.99994 71.2557 4.59971 71.7104 5.79926L70.8081 6.14838C70.6756 5.74375 70.4688 5.42417 70.1877 5.18964C69.9066 4.9551 69.5817 4.83783 69.2129 4.83783C68.6006 4.83783 68.1467 5.06879 67.8513 5.5307C67.5559 5.99261 67.4082 6.71592 67.4082 7.70062Z" fill="#EAF1FF"/>
<path d="M64.7392 9.37103C64.7392 10.0299 64.4984 10.5437 64.0168 10.9125C63.5352 11.2814 62.8486 11.4658 61.957 11.4658C60.3206 11.4658 59.3699 10.8248 59.1049 9.54291L60.0986 9.34418C60.1988 9.80609 60.4065 10.1418 60.7216 10.3513C61.0367 10.5607 61.4574 10.6655 61.9838 10.6655C62.5531 10.6655 62.9855 10.5545 63.2809 10.3325C63.5763 10.1105 63.724 9.79535 63.724 9.38715C63.724 9.13649 63.6659 8.93239 63.5495 8.77484C63.4331 8.61729 63.28 8.48838 63.0903 8.38812C62.9005 8.28786 62.6865 8.2064 62.4484 8.14374C62.2103 8.08108 61.9695 8.01931 61.726 7.95844C61.1495 7.80804 60.7386 7.67377 60.4933 7.5556C60.2481 7.43744 60.052 7.30227 59.9052 7.15009C59.7584 6.9979 59.6474 6.82334 59.5722 6.6264C59.497 6.42946 59.4594 6.19851 59.4594 5.93353C59.4594 5.31407 59.6769 4.83693 60.112 4.50214C60.547 4.16734 61.171 3.99994 61.9838 3.99994C62.7429 3.99994 63.323 4.13243 63.724 4.3974C64.1251 4.66237 64.4044 5.10997 64.5619 5.74017L63.5522 5.91742C63.4662 5.51638 63.2944 5.22544 63.0365 5.04462C62.7787 4.86379 62.426 4.77338 61.9784 4.77338C60.9651 4.77338 60.4584 5.15472 60.4584 5.91742C60.4584 6.13226 60.5059 6.30682 60.6008 6.4411C60.6956 6.57538 60.8245 6.68638 60.9875 6.77411C61.1504 6.86184 61.3402 6.93435 61.5568 6.99164C61.7734 7.04893 62.0053 7.1098 62.2524 7.17426C62.7501 7.29958 63.1082 7.40432 63.3266 7.48846C63.545 7.57261 63.7393 7.6684 63.9093 7.77582C64.0794 7.88324 64.2253 8.01036 64.3471 8.15717C64.4688 8.30398 64.5646 8.47585 64.6344 8.67279C64.7043 8.86973 64.7392 9.10248 64.7392 9.37103Z" fill="#EAF1FF"/>
<path d="M45.8714 11.3583V4.11273H46.8973V10.5204H50.5066V11.3583H45.8714Z" fill="#EAF1FF"/>
<path d="M43.1111 11.3583L42.3699 9.30658H39.3459L38.6101 11.3583H37.5574L40.2966 4.11273H41.4622L44.1531 11.3583H43.1111ZM40.866 4.88617L40.8015 5.09564L40.4309 6.23431L39.6199 8.50629H42.1067L41.1775 5.82074L40.866 4.88617Z" fill="#EAF1FF"/>
<path d="M36.7038 9.31732C36.7038 9.96185 36.4585 10.4632 35.9679 10.8212C35.4774 11.1793 34.7953 11.3583 33.9216 11.3583H31.3864V4.11273H33.5993C35.3753 4.11273 36.2634 4.69818 36.2634 5.86908C36.2634 6.30593 36.1345 6.67116 35.8766 6.96478C35.6188 7.2584 35.2679 7.44997 34.8239 7.53949C35.4219 7.60394 35.8847 7.79551 36.2123 8.1142C36.54 8.43288 36.7038 8.83392 36.7038 9.31732ZM35.2321 5.99799C35.2321 5.61485 35.0969 5.34182 34.8266 5.17889C34.5562 5.01597 34.1507 4.93451 33.61 4.93451H32.4123V7.16888H33.6208C34.695 7.16888 35.2321 6.77858 35.2321 5.99799ZM35.6672 9.22601C35.6672 8.81781 35.5078 8.50629 35.1891 8.29144C34.8705 8.0766 34.396 7.96918 33.7658 7.96918H32.4123V10.5366H33.841C34.4676 10.5366 34.9286 10.4282 35.2241 10.2116C35.5195 9.99497 35.6672 9.66644 35.6672 9.22601Z" fill="#EAF1FF"/>
<path d="M29.5231 7.70062C29.5231 8.90733 29.2858 9.83653 28.8114 10.4882C28.337 11.1399 27.6557 11.4658 26.7677 11.4658C25.8761 11.4658 25.1958 11.1453 24.7267 10.5043C24.2576 9.86338 24.0231 8.92881 24.0231 7.70062C24.0231 6.49392 24.2558 5.57546 24.7213 4.94525C25.1868 4.31504 25.8725 3.99994 26.7784 3.99994C27.6629 3.99994 28.3414 4.31057 28.8141 4.93182C29.2867 5.55308 29.5231 6.47601 29.5231 7.70062ZM28.4435 7.70062C28.4435 5.79209 27.8885 4.83783 26.7784 4.83783C25.6613 4.83783 25.1027 5.79209 25.1027 7.70062C25.1027 8.66742 25.2441 9.39789 25.527 9.89203C25.8099 10.3862 26.2252 10.6332 26.7731 10.6332C27.3567 10.6332 27.781 10.3826 28.046 9.88129C28.311 9.37998 28.4435 8.6531 28.4435 7.70062Z" fill="#EAF1FF"/>
<path d="M17.7071 11.3583V4.11273H18.733V10.5204H22.3423V11.3583H17.7071Z" fill="#EAF1FF"/>
<path d="M15.3066 10.644C14.4867 11.1918 13.6595 11.4658 12.8252 11.4658C11.93 11.4658 11.2354 11.1336 10.7412 10.4694C10.2471 9.8052 10 8.88226 10 7.70062C10 6.45811 10.2363 5.5307 10.709 4.9184C11.1816 4.30609 11.8924 3.99994 12.8413 3.99994C14.0802 3.99994 14.9056 4.59255 15.3174 5.77777L14.3989 6.07855C14.1125 5.2514 13.5968 4.83783 12.8521 4.83783C12.2469 4.83783 11.8002 5.06342 11.512 5.51459C11.2237 5.96576 11.0796 6.69444 11.0796 7.70062C11.0796 9.6557 11.6901 10.6332 12.9111 10.6332C13.1546 10.6332 13.4071 10.5956 13.6685 10.5204C13.9299 10.4453 14.1429 10.3504 14.3076 10.2358V8.43109H12.7339V7.57172H15.3066V10.644Z" fill="#EAF1FF"/>
</g>
</g>
<defs>
<clipPath id="bgblur_0_155_181_clip_path" transform="translate(12 12)"><rect width="88.6655" height="15.4658" rx="6"/>
</clipPath></defs>
</svg>
