<svg preserveAspectRatio="none" overflow="visible" style="display: block;" width="82.0542" height="15.4658" viewBox="0 0 82.0542 15.4658" fill="none" xmlns="http://www.w3.org/2000/svg">
<foreignObject x="-12" y="-12" width="106.054" height="39.4658"><div xmlns="http://www.w3.org/1999/xhtml" style="backdrop-filter:blur(6px);clip-path:url(#bgblur_0_155_170_clip_path);height:100%;width:100%"></div></foreignObject><g id="Overlay+OverlayBlur" data-figma-bg-blur-radius="12">
<rect width="82.0542" height="15.4658" rx="6" fill="#213145" fill-opacity="0.8"/>
<g id="Vector">
<path d="M71.0122 11.3583L70.271 9.30658H67.2471L66.5112 11.3583H65.4585L68.1977 4.11273H69.3633L72.0542 11.3583H71.0122ZM68.7671 4.88617L68.7026 5.09564L68.332 6.23431L67.521 8.50629H70.0078L69.0786 5.82074L68.7671 4.88617Z" fill="#EAF1FF"/>
<path d="M62.2255 4.95062V11.3583H61.205V4.95062H58.8256V4.11273H64.6049V4.95062H62.2255Z" fill="#EAF1FF"/>
<path d="M57.4242 7.70062C57.4242 8.90733 57.187 9.83653 56.7125 10.4882C56.2381 11.1399 55.5568 11.4658 54.6688 11.4658C53.7772 11.4658 53.0969 11.1453 52.6278 10.5043C52.1587 9.86338 51.9242 8.92881 51.9242 7.70062C51.9242 6.49392 52.1569 5.57546 52.6224 4.94525C53.0879 4.31504 53.7736 3.99994 54.6796 3.99994C55.564 3.99994 56.2425 4.31057 56.7152 4.93182C57.1879 5.55308 57.4242 6.47601 57.4242 7.70062ZM56.3446 7.70062C56.3446 5.79209 55.7896 4.83783 54.6796 4.83783C53.5624 4.83783 53.0038 5.79209 53.0038 7.70062C53.0038 8.66742 53.1452 9.39789 53.4281 9.89203C53.711 10.3862 54.1263 10.6332 54.6742 10.6332C55.2578 10.6332 55.6822 10.3826 55.9471 9.88129C56.2121 9.37998 56.3446 8.6531 56.3446 7.70062Z" fill="#EAF1FF"/>
<path d="M48.138 8.22162V11.3583H47.1282V8.22162L44.5286 4.11273H45.6297L47.6385 7.39447L49.6365 4.11273H50.7376L48.138 8.22162Z" fill="#EAF1FF"/>
<path d="M43.342 7.70062C43.342 8.90733 43.1048 9.83653 42.6304 10.4882C42.1559 11.1399 41.4747 11.4658 40.5867 11.4658C39.6951 11.4658 39.0147 11.1453 38.5456 10.5043C38.0766 9.86338 37.842 8.92881 37.842 7.70062C37.842 6.49392 38.0748 5.57546 38.5403 4.94525C39.0058 4.31504 39.6915 3.99994 40.5974 3.99994C41.4818 3.99994 42.1604 4.31057 42.633 4.93182C43.1057 5.55308 43.342 6.47601 43.342 7.70062ZM42.2624 7.70062C42.2624 5.79209 41.7074 4.83783 40.5974 4.83783C39.4802 4.83783 38.9216 5.79209 38.9216 7.70062C38.9216 8.66742 39.0631 9.39789 39.3459 9.89203C39.6288 10.3862 40.0442 10.6332 40.592 10.6332C41.1757 10.6332 41.6 10.3826 41.865 9.88129C42.13 9.37998 42.2624 8.6531 42.2624 7.70062Z" fill="#EAF1FF"/>
<path d="M34.0612 4.95062V11.3583H33.0407V4.95062H30.6613V4.11273H36.4406V4.95062H34.0612Z" fill="#EAF1FF"/>
<path d="M25.006 8.86615V8.00677H28.0138V8.86615H25.006Z" fill="#EAF1FF"/>
<path d="M19.4688 6.8681L21.2574 4.11273H22.3585L20.022 7.57172L22.5787 11.3583H21.4776L19.4688 8.2807L17.4654 11.3583H16.3643L18.921 7.57172L16.5845 4.11273H17.6856L19.4688 6.8681Z" fill="#EAF1FF"/>
<path d="M10 11.3583V4.11273H14.936V4.95062H11.0259V7.21722H14.6138V8.04437H11.0259V10.5204H15.1562V11.3583H10Z" fill="#EAF1FF"/>
</g>
</g>
<defs>
<clipPath id="bgblur_0_155_170_clip_path" transform="translate(12 12)"><rect width="82.0542" height="15.4658" rx="6"/>
</clipPath></defs>
</svg>
