<svg preserveAspectRatio="none" overflow="visible" style="display: block;" width="121.64" height="20.6" viewBox="0 0 121.64 20.6" fill="none" xmlns="http://www.w3.org/2000/svg">
<g id="Vector">
<path d="M118.76 16.32V6.4H121.28V16.32H118.76ZM120.02 5.24C119.567 5.24 119.183 5.09333 118.87 4.8C118.557 4.50667 118.4 4.12 118.4 3.64C118.4 3.16 118.557 2.77333 118.87 2.48C119.183 2.18667 119.567 2.04 120.02 2.04C120.487 2.04 120.873 2.18667 121.18 2.48C121.487 2.77333 121.64 3.16 121.64 3.64C121.64 4.12 121.487 4.50667 121.18 4.8C120.873 5.09333 120.487 5.24 120.02 5.24Z" fill="#0B1C30"/>
<path d="M111.24 16.6C110.253 16.6 109.367 16.4 108.58 16C107.793 15.6 107.173 15.02 106.72 14.26C106.267 13.5 106.04 12.5867 106.04 11.52V11.2C106.04 10.1333 106.267 9.22 106.72 8.46C107.173 7.7 107.793 7.12 108.58 6.72C109.367 6.32 110.253 6.12 111.24 6.12C112.227 6.12 113.113 6.32 113.9 6.72C114.687 7.12 115.307 7.7 115.76 8.46C116.213 9.22 116.44 10.1333 116.44 11.2V11.52C116.44 12.5867 116.213 13.5 115.76 14.26C115.307 15.02 114.687 15.6 113.9 16C113.113 16.4 112.227 16.6 111.24 16.6ZM111.24 14.36C112.013 14.36 112.653 14.11 113.16 13.61C113.667 13.11 113.92 12.3933 113.92 11.46V11.26C113.92 10.3267 113.67 9.61 113.17 9.11C112.67 8.61 112.027 8.36 111.24 8.36C110.467 8.36 109.827 8.61 109.32 9.11C108.813 9.61 108.56 10.3267 108.56 11.26V11.46C108.56 12.3933 108.813 13.11 109.32 13.61C109.827 14.11 110.467 14.36 111.24 14.36ZM109 5.48L107.62 4.6L108.28 3.46C108.48 3.11333 108.723 2.86333 109.01 2.71C109.297 2.55667 109.607 2.48 109.94 2.48C110.233 2.48 110.49 2.53667 110.71 2.65C110.93 2.76333 111.147 2.91333 111.36 3.1C111.48 3.20667 111.61 3.31333 111.75 3.42C111.89 3.52667 112.047 3.58 112.22 3.58C112.42 3.58 112.583 3.51333 112.71 3.38C112.837 3.24667 112.947 3.10667 113.04 2.96L113.36 2.48L114.74 3.36L114.08 4.5C113.88 4.83333 113.64 5.08 113.36 5.24C113.08 5.4 112.767 5.48 112.42 5.48C112.127 5.48 111.87 5.42333 111.65 5.31C111.43 5.19667 111.213 5.04667 111 4.86C110.88 4.75333 110.753 4.64667 110.62 4.54C110.487 4.43333 110.327 4.38 110.14 4.38C109.94 4.38 109.78 4.44667 109.66 4.58C109.54 4.71333 109.427 4.85333 109.32 5L109 5.48Z" fill="#0B1C30"/>
<path d="M101.2 16.32V2.32H103.72V16.32H101.2Z" fill="#0B1C30"/>
<path d="M90.8 16.32C90.1467 16.32 89.6167 16.1167 89.21 15.71C88.8033 15.3033 88.6 14.76 88.6 14.08V8.48H86.12V6.4H88.6V3.32H91.12V6.4H93.84V8.48H91.12V13.64C91.12 14.04 91.3067 14.24 91.68 14.24H93.6V16.32H90.8Z" fill="#0B1C30"/>
<path d="M79.48 16.6C78.4933 16.6 77.6067 16.4 76.82 16C76.0333 15.6 75.4133 15.02 74.96 14.26C74.5067 13.5 74.28 12.5867 74.28 11.52V11.2C74.28 10.1333 74.5067 9.22 74.96 8.46C75.4133 7.7 76.0333 7.12 76.82 6.72C77.6067 6.32 78.4933 6.12 79.48 6.12C80.4667 6.12 81.3533 6.32 82.14 6.72C82.9267 7.12 83.5467 7.7 84 8.46C84.4533 9.22 84.68 10.1333 84.68 11.2V11.52C84.68 12.5867 84.4533 13.5 84 14.26C83.5467 15.02 82.9267 15.6 82.14 16C81.3533 16.4 80.4667 16.6 79.48 16.6ZM79.48 14.36C80.2533 14.36 80.8933 14.11 81.4 13.61C81.9067 13.11 82.16 12.3933 82.16 11.46V11.26C82.16 10.3267 81.91 9.61 81.41 9.11C80.91 8.61 80.2667 8.36 79.48 8.36C78.7067 8.36 78.0667 8.61 77.56 9.11C77.0533 9.61 76.8 10.3267 76.8 11.26V11.46C76.8 12.3933 77.0533 13.11 77.56 13.61C78.0667 14.11 78.7067 14.36 79.48 14.36ZM75.64 5.28L77.98 2.32H80.98L83.32 5.28H80.78L79.66 3.8H79.3L78.18 5.28H75.64ZM82.4 3L83.44 0H85.88L84.4 3H82.4Z" fill="#0B1C30"/>
<path d="M67.7 16.6C66.74 16.6 65.87 16.4 65.09 16C64.31 15.6 63.6933 15.02 63.24 14.26C62.7867 13.5 62.56 12.58 62.56 11.5V11.22C62.56 10.14 62.7867 9.22 63.24 8.46C63.6933 7.7 64.31 7.12 65.09 6.72C65.87 6.32 66.74 6.12 67.7 6.12C68.6467 6.12 69.46 6.28667 70.14 6.62C70.82 6.95333 71.37 7.41 71.79 7.99C72.21 8.57 72.4867 9.22667 72.62 9.96L70.18 10.48C70.1267 10.08 70.0067 9.72 69.82 9.4C69.6333 9.08 69.37 8.82667 69.03 8.64C68.69 8.45333 68.2667 8.36 67.76 8.36C67.2533 8.36 66.7967 8.47 66.39 8.69C65.9833 8.91 65.6633 9.23667 65.43 9.67C65.1967 10.1033 65.08 10.6333 65.08 11.26V11.46C65.08 12.0867 65.1967 12.6167 65.43 13.05C65.6633 13.4833 65.9833 13.81 66.39 14.03C66.7967 14.25 67.2533 14.36 67.76 14.36C68.52 14.36 69.0967 14.1633 69.49 13.77C69.8833 13.3767 70.1333 12.86 70.24 12.22L72.68 12.8C72.5067 13.5067 72.21 14.15 71.79 14.73C71.37 15.31 70.82 15.7667 70.14 16.1C69.46 16.4333 68.6467 16.6 67.7 16.6Z" fill="#0B1C30"/>
<path d="M52.64 16.32V6.4H55.16V16.32H52.64ZM53.9 5.24C53.4467 5.24 53.0633 5.09333 52.75 4.8C52.4367 4.50667 52.28 4.12 52.28 3.64C52.28 3.16 52.4367 2.77333 52.75 2.48C53.0633 2.18667 53.4467 2.04 53.9 2.04C54.3667 2.04 54.7533 2.18667 55.06 2.48C55.3667 2.77333 55.52 3.16 55.52 3.64C55.52 4.12 55.3667 4.50667 55.06 4.8C54.7533 5.09333 54.3667 5.24 53.9 5.24ZM53.9 20.6C53.4467 20.6 53.0633 20.4533 52.75 20.16C52.4367 19.8667 52.28 19.48 52.28 19C52.28 18.52 52.4367 18.1333 52.75 17.84C53.0633 17.5467 53.4467 17.4 53.9 17.4C54.3667 17.4 54.7533 17.5467 55.06 17.84C55.3667 18.1333 55.52 18.52 55.52 19C55.52 19.48 55.3667 19.8667 55.06 20.16C54.7533 20.4533 54.3667 20.6 53.9 20.6Z" fill="#0B1C30"/>
<path d="M44.72 16.32V6.4H47.2V7.52H47.56C47.7067 7.12 47.95 6.82667 48.29 6.64C48.63 6.45333 49.0267 6.36 49.48 6.36H50.68V8.6H49.44C48.8 8.6 48.2733 8.77 47.86 9.11C47.4467 9.45 47.24 9.97333 47.24 10.68V16.32H44.72Z" fill="#0B1C30"/>
<path d="M39.4 16.32C38.7467 16.32 38.2167 16.1167 37.81 15.71C37.4033 15.3033 37.2 14.76 37.2 14.08V8.48H34.72V6.4H37.2V3.32H39.72V6.4H42.44V8.48H39.72V13.64C39.72 14.04 39.9067 14.24 40.28 14.24H42.2V16.32H39.4Z" fill="#0B1C30"/>
<path d="M22.04 16.6C21.3333 16.6 20.7 16.4767 20.14 16.23C19.58 15.9833 19.1367 15.6233 18.81 15.15C18.4833 14.6767 18.32 14.1 18.32 13.42C18.32 12.74 18.4833 12.17 18.81 11.71C19.1367 11.25 19.59 10.9033 20.17 10.67C20.75 10.4367 21.4133 10.32 22.16 10.32H24.88V9.76C24.88 9.29333 24.7333 8.91 24.44 8.61C24.1467 8.31 23.68 8.16 23.04 8.16C22.4133 8.16 21.9467 8.30333 21.64 8.59C21.3333 8.87667 21.1333 9.24667 21.04 9.7L18.72 8.92C18.88 8.41333 19.1367 7.95 19.49 7.53C19.8433 7.11 20.3167 6.77 20.91 6.51C21.5033 6.25 22.2267 6.12 23.08 6.12C24.3867 6.12 25.42 6.44667 26.18 7.1C26.94 7.75333 27.32 8.7 27.32 9.94V13.64C27.32 14.04 27.5067 14.24 27.88 14.24H28.68V16.32H27C26.5067 16.32 26.1 16.2 25.78 15.96C25.46 15.72 25.3 15.4 25.3 15V14.98H24.92C24.8667 15.14 24.7467 15.35 24.56 15.61C24.3733 15.87 24.08 16.1 23.68 16.3C23.28 16.5 22.7333 16.6 22.04 16.6ZM22.48 14.56C23.1867 14.56 23.7633 14.3633 24.21 13.97C24.6567 13.5767 24.88 13.0533 24.88 12.4V12.2H22.34C21.8733 12.2 21.5067 12.3 21.24 12.5C20.9733 12.7 20.84 12.98 20.84 13.34C20.84 13.7 20.98 13.9933 21.26 14.22C21.54 14.4467 21.9467 14.56 22.48 14.56ZM21.66 5.28L23.14 2.32H25.98L23.86 5.28H21.66Z" fill="#0B1C30"/>
<path d="M13.64 16.32V6.4H16.16V16.32H13.64ZM14.9 5.24C14.4467 5.24 14.0633 5.09333 13.75 4.8C13.4367 4.50667 13.28 4.12 13.28 3.64C13.28 3.16 13.4367 2.77333 13.75 2.48C14.0633 2.18667 14.4467 2.04 14.9 2.04C15.3667 2.04 15.7533 2.18667 16.06 2.48C16.3667 2.77333 16.52 3.16 16.52 3.64C16.52 4.12 16.3667 4.50667 16.06 4.8C15.7533 5.09333 15.3667 5.24 14.9 5.24Z" fill="#0B1C30"/>
<path d="M5.16 16.6C4.2 16.6 3.33 16.3833 2.55 15.95C1.77 15.5167 1.15 14.8833 0.69 14.05C0.23 13.2167 0 12.2 0 11V7.64C0 5.84 0.506667 4.45667 1.52 3.49C2.53333 2.52333 3.90667 2.04 5.64 2.04C7.36 2.04 8.69 2.49667 9.63 3.41C10.57 4.32333 11.04 5.56 11.04 7.12V7.2H8.44V7.04C8.44 6.54667 8.33667 6.1 8.13 5.7C7.92333 5.3 7.61333 4.98333 7.2 4.75C6.78667 4.51667 6.26667 4.4 5.64 4.4C4.70667 4.4 3.97333 4.68667 3.44 5.26C2.90667 5.83333 2.64 6.61333 2.64 7.6V11.04C2.64 12.0133 2.90667 12.7967 3.44 13.39C3.97333 13.9833 4.72 14.28 5.68 14.28C6.64 14.28 7.34 14.0267 7.78 13.52C8.22 13.0133 8.44 12.3733 8.44 11.6V11.4H5.12V9.16H11.04V16.32H8.6V14.98H8.24C8.14667 15.2067 7.99667 15.4467 7.79 15.7C7.58333 15.9533 7.27333 16.1667 6.86 16.34C6.44667 16.5133 5.88 16.6 5.16 16.6Z" fill="#0B1C30"/>
</g>
</svg>
